<mxfile host="app.diagrams.net" modified="2023-07-27T06:03:07.270Z" agent="Mozilla/5.0 (Macintosh; Intel Mac OS X 10_15_7) AppleWebKit/537.36 (KHTML, like Gecko) Chrome/114.0.0.0 Safari/537.36" version="21.6.5" etag="slE7aJvj-TL0m_snGrx-" type="github">
  <diagram name="Page-1" id="RF5cgHOWn9OtOZcBsRnu">
    <mxGraphModel>
      <root>
        <mxCell id="0" />
        <mxCell id="1" parent="0" />
      </root>
    </mxGraphModel>
  </diagram>
</mxfile>
